# xmcd
#
# Track frame offsets:
#	150
#	22032
#	38607
#	61832
#	79617
#	97080
#	113287
#	130040
#	147417
#	164432
#	182285
#	201045
#
# Disc length: 2980 seconds
#
# Revision: 2
# Processed by: cddbd v1.5.2PL0 Copyright (c) Steve Scherf et al.
# Submitted via: audiograbber 1.83.01
#
DISCID=910ba20c
DTITLE=James Otto - Days Of Our Lives
DYEAR=2004
DGENRE=Country
TTITLE0=Long way down
TTITLE1=Gone
TTITLE2=Misspent youth
TTITLE3=Miss Temptation
TTITLE4=Sunday morning and saturday night
TTITLE5=Song of the violin
TTITLE6=She knows
TTITLE7=Days of our lives
TTITLE8=The last thing I do
TTITLE9=The ball
TTITLE10=Lowdown on the highlife
TTITLE11=Never say goodbye
EXTD=
EXTT0=
EXTT1=
EXTT2=
EXTT3=
EXTT4=
EXTT5=
EXTT6=
EXTT7=
EXTT8=
EXTT9=
EXTT10=
EXTT11=
PLAYORDER=
